<svg xmlns="http://www.w3.org/2000/svg" version="1.1" xmlns:xlink="http://www.w3.org/1999/xlink" xmlns:svgjs="http://svgjs.dev/svgjs" width="1000" height="532" viewBox="0 0 1000 532"><g transform="matrix(1,0,0,1,-0.6060533405608908,-0.19570860643983679)"><svg viewBox="0 0 396 211" data-background-color="#ffffff" preserveAspectRatio="xMidYMid meet" height="532" width="1000" xmlns="http://www.w3.org/2000/svg" xmlns:xlink="http://www.w3.org/1999/xlink"><g id="tight-bounds" transform="matrix(1,0,0,1,0.23999717905621765,0.07762127059925206)"><svg viewBox="0 0 395.52 210.8447574588015" height="210.8447574588015" width="395.52"><g><svg viewBox="0 0 395.52000000000004 210.84475745880152" height="210.8447574588015" width="395.52"><g transform="matrix(1,0,0,1,0,155.81486322373524)"><svg viewBox="0 0 395.52000000000004 55.02989423506629" height="55.02989423506629" width="395.52000000000004"><g id="textblocktransform"><svg viewBox="0 0 395.52000000000004 55.02989423506629" height="55.02989423506629" width="395.52000000000004" id="textblock"><g><svg viewBox="0 0 395.52000000000004 55.02989423506629" height="55.02989423506629" width="395.52000000000004"><g transform="matrix(1,0,0,1,0,0)"><svg width="395.52000000000004" viewBox="2.200000047683716 -35.5 335.6199951171875 46.70000076293945" height="55.02989423506629" data-palette-color="#000008"><path d="M39.53 0.6Q37.65 0.6 36.5-0.73 35.35-2.05 35.35-4.33 35.35-6.6 37.43-15.65 39.5-24.7 39.5-27.2 39.5-29.7 37.55-29.7L37.55-29.7Q34.85-29.7 31.6-27.3L31.6-27.3Q31.25-24.6 29.55-17.88 27.85-11.15 27.28-7.93 26.7-4.7 26.7-2.95 26.7-1.2 26.75-0.8L26.75-0.8Q24.8 0.2 19.8 0.2L19.8 0.2 18.85 0.2Q18.85-4 21.2-14.1L21.2-14.1Q23.6-24.4 23.6-27.05 23.6-29.7 21.75-29.7L21.75-29.7Q19.05-29.7 15.45-27.1L15.45-27.1Q14.9-24.35 13.4-18.15L13.4-18.15Q10.05-3.95 10.05-0.8L10.05-0.8Q8.1 0.2 3.15 0.2L3.15 0.2 2.2 0.2Q2.4-2.05 4.85-13.03 7.3-24 7.9-29.45L7.9-29.45Q7.9-30.25 7.38-31.38 6.85-32.5 6.3-33.2L6.3-33.2 5.8-33.9 5.95-34.65Q8.75-35.5 15.6-35.5L15.6-35.5Q16.25-34.3 16.25-32.45L16.25-32.45Q16.25-32.05 16.05-30.35L16.05-30.35Q21.8-35.5 26.35-35.5L26.35-35.5Q28.4-35.5 29.8-34.1 31.2-32.7 31.6-30.45L31.6-30.45Q37.55-35.5 41.7-35.5L41.7-35.5Q44.3-35.5 45.9-33.8 47.5-32.1 47.5-29.05 47.5-26 45.38-17.43 43.25-8.85 43.25-5.45L43.25-5.45Q43.25-4 43.75-4L43.75-4Q44.2-4 46.2-5L46.2-5 46.9-5.3 47.9-3.45Q45.75-1.6 43.58-0.5 41.4 0.6 39.53 0.6ZM11.35-19.25L11.4-19.5Q11.35-19.4 11.35-19.25L11.35-19.25ZM63.4-35.5Q64.15-34.25 64.15-31.65 64.15-29.05 62.02-19.65 59.9-10.25 59.9-7.73 59.9-5.2 61.75-5.2L61.75-5.2Q64.95-5.2 68.95-7.95L68.95-7.95Q69.25-9.75 70.4-15.2L70.4-15.2Q73.1-27.8 73.2-32.55L73.2-32.55Q73.2-33.4 73.1-33.95L73.1-33.95Q77.1-35.5 81.15-35.5L81.15-35.5Q81.3-35.2 81.3-34L81.3-34Q81.3-31.25 78.87-19.85 76.45-8.45 76.45-5.35L76.45-5.35Q76.45-4 76.9-4 77.35-4 79.95-5.3L79.95-5.3 80.85-3.45Q76.4 0.6 72.95 0.6L72.95 0.6Q71.05 0.6 69.8-0.6 68.55-1.8 68.5-4L68.5-4Q61.75 0.6 57.3 0.6L57.3 0.6Q54.85 0.6 53.37-0.98 51.9-2.55 51.9-5.3 51.9-8.05 53.95-16.82 56-25.6 56-29.45L56-29.45Q56-30.25 55.5-31.38 55-32.5 54.5-33.2L54.5-33.2 54-33.9 54.1-34.65Q56.85-35.5 63.4-35.5L63.4-35.5ZM103.5-9.8L103.5-9.8Q103.5-5 99.85-2.2 96.2 0.6 91 0.6L91 0.6Q87.5 0.6 85.22-1.18 82.95-2.95 82.7-4.2L82.7-4.2Q83.25-5.85 85.05-7.9 86.85-9.95 88.3-10.4L88.3-10.4Q90.85-8.75 93.05-3.05L93.05-3.05Q96.3-3.15 96.3-6.6L96.3-6.6Q96.3-8.5 94.77-11.28 93.25-14.05 91.45-16.48 89.65-18.9 88.12-21.93 86.6-24.95 86.6-27.3L86.6-27.3Q86.6-31.1 89.67-33.3 92.75-35.5 96.6-35.5 100.45-35.5 102.57-33.85 104.7-32.2 104.7-30.1 104.7-28 103.1-25.8 101.5-23.6 99.9-22.3L99.9-22.3 98.3-21Q98.9-20.2 99.75-18.95 100.6-17.7 102.05-14.7 103.5-11.7 103.5-9.8ZM99.67-26.2Q100.35-26.85 100.9-27.78 101.45-28.7 101.45-29.73 101.45-30.75 100.25-31.45 99.05-32.15 97.37-32.15 95.7-32.15 94.57-31.38 93.45-30.6 93.45-29.53 93.45-28.45 94.17-27.03 94.9-25.6 95.6-24.65L95.6-24.65 96.35-23.7Q96.85-23.95 97.92-24.75 99-25.55 99.67-26.2ZM115.49-5.1L115.49-5.1Q115.49-4 116.04-4L116.04-4Q116.34-4 118.94-5.3L118.94-5.3 119.89-3.45Q115.39 0.6 111.94 0.6L111.94 0.6Q109.79 0.6 108.67-0.85 107.54-2.3 107.54-4.45 107.54-6.6 109.97-16.23 112.39-25.85 112.64-29.45L112.64-29.45Q112.64-30.25 112.12-31.38 111.59-32.5 111.04-33.2L111.04-33.2 110.54-33.9 110.69-34.65Q113.54-35.5 120.09-35.5L120.09-35.5Q120.69-34.35 120.69-32.18 120.69-30 118.09-19.6 115.49-9.2 115.49-5.1ZM134.59 0.6L134.59 0.6Q129.94 0.6 126.89-3.18 123.84-6.95 123.84-13.05 123.84-19.15 125.94-24.18 128.04-29.2 131.94-32.35 135.84-35.5 140.27-35.5 144.69-35.5 147.42-33.5 150.14-31.5 150.14-28.73 150.14-25.95 148.49-24L148.49-24Q146.89-24 144.89-24.7 142.89-25.4 141.89-26.4L141.89-26.4 142.84-31.45Q141.64-32.2 139.69-32.2L139.69-32.2Q136.64-32.2 134.29-26.98 131.94-21.75 131.94-14.1L131.94-14.1Q131.94-9.05 133.62-6.78 135.29-4.5 137.69-4.5L137.69-4.5Q141.64-4.5 145.29-8.2L145.29-8.2 147.34-6.35Q146.79-5.55 145.34-4.15 143.89-2.75 142.49-1.83 141.09-0.9 138.94-0.15 136.79 0.6 134.59 0.6ZM164.84-11.9L151.09-11.9Q151.09-15 151.24-16.15L151.24-16.15 164.99-16.15Q164.99-12.7 164.84-11.9L164.84-11.9ZM181.34-13.85L181.34-13.85Q179.99-13.85 179.28-13.9L179.28-13.9Q177.14-4.5 176.89-0.85L176.89-0.85Q174.74 0.2 170.34 0.2L170.34 0.2Q169.39 0.2 169.03 0.15L169.03 0.15Q169.39-2.8 172.03-14.68 174.69-26.55 174.69-29.65L174.69-29.65Q174.69-30.25 174.01-31.23 173.34-32.2 172.64-32.85L172.64-32.85 171.99-33.5 172.14-34.25Q180.53-35.5 185.74-35.5L185.74-35.5Q196.04-35.5 196.04-27.1L196.04-27.1Q196.04-21.5 192.34-17.68 188.64-13.85 181.34-13.85ZM180.03-17.2L180.53-17.2Q184.39-17.2 186.36-20.1 188.34-23 188.34-27.85L188.34-27.85Q188.34-29.85 187.59-31.13 186.84-32.4 185.39-32.4L185.39-32.4Q184.44-32.4 183.03-32.05L183.03-32.05Q182.24-26.8 180.03-17.2L180.03-17.2ZM217.13-2.4Q216.53-0.85 215.26 0.05 213.98 0.95 212.26 0.95 210.53 0.95 207.11-1.15 203.68-3.25 201.63-3.85L201.63-3.85Q200.28-2.05 198.58-0.85 196.88 0.35 196.23 0.35L196.23 0.35Q195.73 0.35 194.23-1.83 192.73-4 192.73-4.95L192.73-4.95Q192.73-5.5 194.31-6.6 195.88-7.7 197.63-8.1L197.63-8.1Q198.88-11.15 200.23-17.13 201.58-23.1 202.33-29.45L202.33-29.45Q202.33-30.25 201.81-31.38 201.28-32.5 200.73-33.2L200.73-33.2 200.23-33.9 200.38-34.65Q203.38-35.5 210.23-35.5L210.23-35.5Q210.88-34.4 210.88-32.15 210.88-29.9 209.58-25.45 208.28-21 206.01-14.78 203.73-8.55 203.38-7.4L203.38-7.4Q203.58-7.35 204.63-7.05 205.68-6.75 206.01-6.68 206.33-6.6 207.28-6.38 208.23-6.15 208.78-6.08 209.33-6 210.23-5.9L210.23-5.9Q211.78-5.65 213.16-5.65 214.53-5.65 215.13-6.35L215.13-6.35 216.53-8.95 218.18-8.55Q218.18-5.3 217.13-2.4L217.13-2.4ZM221.68-0.65L221.68-0.65Q221.33 0.45 220.11 0.45 218.88 0.45 217.33-0.9L217.33-0.9Q218.83-5.3 223.68-15.08 228.53-24.85 229.98-29.7L229.98-29.7Q230.18-30.5 230.18-30.8L230.18-30.8Q230.18-31.55 229.08-33.1L229.08-33.1 228.68-33.65 228.78-34.3Q233.03-35.5 238.18-35.5L238.18-35.5 241.23-35.3Q241.78-34.55 242.08-33L242.08-33Q242.88-29.2 242.88-13.45L242.88-13.45Q242.88-7.35 243.93-4.85L243.93-4.85Q244.33-3.9 244.73-3.9 245.13-3.9 247.18-4.9L247.18-4.9 247.83-5.2 248.83-3.4Q246.93-1.55 244.61-0.48 242.28 0.6 240.33 0.6L240.33 0.6Q235.28 0.6 235.28-7.25L235.28-7.25 235.28-11.2Q233.98-11.5 231.33-11.5 228.68-11.5 225.53-11L225.53-11Q223.03-5.2 221.68-0.65ZM227.13-14.6L235.38-14.6 235.43-20.4Q235.43-28 234.78-30.7L234.78-30.7Q234.38-30.7 234.18-30.6L234.18-30.6Q232.78-26.75 231.56-24.08 230.33-21.4 228.91-18.38 227.48-15.35 227.13-14.6L227.13-14.6ZM265.45 9.1Q263.28 10.45 261.6 10.83 259.93 11.2 257.98 11.2 256.03 11.2 254.65 10.05 253.28 8.9 253.28 7 253.28 5.1 254.55 3.55 255.83 2 257.63 1.1L257.63 1.1Q261.28-0.8 264.28-1.4L264.28-1.4 265.58-1.65Q265.63-1.85 266.18-3.65 266.73-5.45 266.98-6.45L266.98-6.45Q260.63-2.65 256.53-2.65L256.53-2.65Q254.08-2.65 252.48-4.23 250.88-5.8 250.88-8.72 250.88-11.65 252.78-19.28 254.68-26.9 254.68-29.45L254.68-29.45Q254.68-31.1 253.18-33.2L253.18-33.2 252.68-33.9 252.83-34.65Q255.83-35.5 262.08-35.5L262.08-35.5Q262.78-34 262.78-31.45 262.78-28.9 260.88-20.68 258.98-12.45 258.98-11.15L258.98-11.15Q258.98-8.5 260.78-8.5L260.78-8.5Q264.18-8.5 268.03-10.45L268.03-10.45Q271.08-23 272.18-34.15L272.18-34.15Q274.73-35.45 279.18-35.45L279.18-35.45 280.13-35.45Q280.13-32.8 279.23-28.1L279.23-28.1Q278.08-22.15 275.68-10.1L275.68-10.1Q274.63-4.7 272.93-0.68 271.23 3.35 269.43 5.55 267.63 7.75 265.45 9.1ZM257.98 7.85L257.98 7.85Q259.73 7.85 261.63 5.93 263.53 4 264.73 1.35L264.73 1.35Q262.38 1.6 259.45 3.18 256.53 4.75 256.53 6.4L256.53 6.4Q256.53 7 256.95 7.43 257.38 7.85 257.98 7.85ZM291.98 0.6L291.98 0.6Q288.48 0.6 285.28-1.4L285.28-1.4Q283.68-2.4 282.65-4.2 281.63-6 281.63-8.35L281.63-8.35Q281.63-12.8 284.58-15.6 287.53-18.4 291.68-18.85L291.68-18.85Q288.88-19.6 287.2-21.45 285.53-23.3 285.53-26.15L285.53-26.15Q285.53-30.45 288.9-32.98 292.28-35.5 296.63-35.5 300.98-35.5 303.88-33.65 306.78-31.8 306.78-28.65L306.78-28.65Q306.78-27.55 306.4-26.5 306.03-25.45 305.63-25L305.63-25 305.28-24.5Q303.68-24.5 301.75-25.05 299.83-25.6 298.93-26.45L298.93-26.45 299.53-31.6Q298.78-32.35 297-32.35 295.23-32.35 294.2-30.53 293.18-28.7 293.18-26.35 293.18-24 293.73-22.8 294.28-21.6 295.28-20.95L295.28-20.95Q296.83-19.95 298.93-19.55L298.93-19.55 298.53-16.8Q294.93-16.8 292.28-14.68 289.63-12.55 289.63-9.05L289.63-9.05Q289.63-6.85 291.05-5.43 292.48-4 294.73-4L294.73-4Q298.83-4 303.13-8.15L303.13-8.15 305.13-6.3Q299.33 0.6 291.98 0.6ZM308.77 0.25L308.77 0.25Q307.82 0.25 307.47 0.2L307.47 0.2Q307.82-2.7 310.55-14.53 313.27-26.35 313.27-29.5L313.27-29.5Q313.27-30.1 312.57-31.08 311.87-32.05 311.17-32.7L311.17-32.7 310.52-33.4 310.67-34.2Q317.52-35.5 325.17-35.5L325.17-35.5Q334.37-35.5 334.37-28.25L334.37-28.25Q334.37-24.7 332.6-21.78 330.82-18.85 327.07-17.2L327.07-17.2Q329.87-7.85 331.87-5.1L331.87-5.1Q332.77-3.95 333.27-3.95L333.27-3.95Q334.17-3.95 336.07-4.85L336.07-4.85 336.67-5.15 337.82-3.3Q335.97-1.6 333.55-0.5 331.12 0.6 329 0.6 326.87 0.6 325.5-1.23 324.12-3.05 323-6.6 321.87-10.15 320.72-15.7L320.72-15.7Q319.12-15.6 318.27-15.6L318.27-15.6Q315.72-4.65 315.47-0.8L315.47-0.8Q313.32 0.25 308.77 0.25ZM319.02-19L320.22-19Q323.22-19 324.95-21.68 326.67-24.35 326.67-28.05L326.67-28.05Q326.67-30 325.97-31.2 325.27-32.4 323.87-32.4L323.87-32.4Q323.27-32.4 322.45-32.23 321.62-32.05 321.62-32L321.62-32Q320.82-26.85 319.02-19L319.02-19Z" opacity="1" transform="matrix(1,0,0,1,0,0)" fill="#000008" class="undefined-text-0" data-fill-palette-color="primary" id="text-0"></path></svg></g></svg></g></svg></g></svg></g><g transform="matrix(1,0,0,1,132.84380569956988,0)"><svg viewBox="0 0 129.83238860086024 129.83238860086024" height="129.83238860086024" width="129.83238860086024"><g><svg></svg></g><g id="icon-0"><svg viewBox="0 0 129.83238860086024 129.83238860086024" height="129.83238860086024" width="129.83238860086024"><g><path d="M0 64.916c0-35.852 29.064-64.916 64.916-64.916 35.852 0 64.916 29.064 64.916 64.916 0 35.852-29.064 64.916-64.916 64.916-35.852 0-64.916-29.064-64.916-64.916zM64.916 124.87c33.111 0 59.954-26.842 59.954-59.954 0-33.111-26.842-59.954-59.954-59.953-33.111 0-59.954 26.842-59.953 59.953 0 33.111 26.842 59.954 59.953 59.954z" data-fill-palette-color="accent" fill="#24a8df" stroke="transparent"></path><ellipse rx="64.26703235742582" ry="64.26703235742582" cx="64.91619430043012" cy="64.91619430043012" fill="#24a8df" stroke="transparent" stroke-width="0" fill-opacity="1" data-fill-palette-color="accent"></ellipse></g><g transform="matrix(1,0,0,1,35.890910120286875,31.16459205489287)"><svg viewBox="0 0 58.05056836028649 67.5032044910745" height="67.5032044910745" width="58.05056836028649"><g><svg xmlns="http://www.w3.org/2000/svg" xmlns:xlink="http://www.w3.org/1999/xlink" version="1.1" x="0" y="0" viewBox="5.918337821960449 0.9999868869781494 83.77965545654297 97.421875" enable-background="new 0 0 100 100" xml:space="preserve" height="67.5032044910745" width="58.05056836028649" class="icon-s-0" data-fill-palette-color="quaternary" id="s-0"><path d="M31.716 11.832v2.797h-0.027v59.523c-3.111-1.391-6.916-1.955-10.897-1.393-9.153 1.293-15.768 8.035-14.775 15.064 0.992 7.027 9.216 11.676 18.369 10.383 8.646-1.221 15.023-7.307 14.867-13.9h0.006V35.628c16.611-4.931 33.46-6.991 42.868-7.816v36.465c-3.111-1.393-6.917-1.957-10.897-1.395-9.153 1.293-15.768 8.037-14.775 15.064s9.216 11.678 18.369 10.385c8.645-1.223 15.023-7.309 14.866-13.902h0.008V27.293 4.753 1.202C52.01-0.73 31.716 11.832 31.716 11.832z" fill="#ffffff" data-fill-palette-color="quaternary"></path></svg></g></svg></g></svg></g></svg></g><g></g></svg></g><defs></defs></svg><rect width="395.52" height="210.8447574588015" fill="none" stroke="none" visibility="hidden"></rect></g></svg></g></svg>